<mxfile host="app.diagrams.net" agent="Mozilla/5.0 (X11; Linux x86_64; rv:133.0) Gecko/20100101 Firefox/133.0" version="25.0.3">
  <diagram name="Page-1" id="13e1069c-82ec-6db2-03f1-153e76fe0fe0">
    <mxGraphModel dx="2093" dy="529" grid="1" gridSize="10" guides="1" tooltips="1" connect="1" arrows="1" fold="1" page="1" pageScale="1" pageWidth="1100" pageHeight="850" background="none" math="0" shadow="0">
      <root>
        <mxCell id="0" />
        <mxCell id="1" parent="0" />
        <mxCell id="ln-Szk9AGflIyGVg6pl5-1" value="&lt;div&gt;User&lt;/div&gt;" style="shape=umlActor;verticalLabelPosition=bottom;verticalAlign=top;html=1;outlineConnect=0;" vertex="1" parent="1">
          <mxGeometry x="40" y="20" width="30" height="60" as="geometry" />
        </mxCell>
        <mxCell id="ln-Szk9AGflIyGVg6pl5-2" value="&lt;div&gt;Students &amp;amp; Companies&lt;/div&gt;" style="rounded=1;whiteSpace=wrap;html=1;" vertex="1" parent="1">
          <mxGeometry x="200" y="20" width="120" height="80" as="geometry" />
        </mxCell>
        <mxCell id="ln-Szk9AGflIyGVg6pl5-3" value="&lt;div&gt;Institutional Authentication &lt;br&gt;&lt;/div&gt;" style="rounded=1;whiteSpace=wrap;html=1;" vertex="1" parent="1">
          <mxGeometry x="400" y="20" width="120" height="80" as="geometry" />
        </mxCell>
        <mxCell id="ln-Szk9AGflIyGVg6pl5-4" value="AWS Database" style="rounded=1;whiteSpace=wrap;html=1;" vertex="1" parent="1">
          <mxGeometry x="600" y="20" width="120" height="80" as="geometry" />
        </mxCell>
        <mxCell id="ln-Szk9AGflIyGVg6pl5-5" value="" style="endArrow=none;dashed=1;html=1;rounded=0;" edge="1" parent="1">
          <mxGeometry width="50" height="50" relative="1" as="geometry">
            <mxPoint x="60" y="950" as="sourcePoint" />
            <mxPoint x="60" y="100" as="targetPoint" />
          </mxGeometry>
        </mxCell>
        <mxCell id="ln-Szk9AGflIyGVg6pl5-7" value="" style="endArrow=none;dashed=1;html=1;rounded=0;entryX=0.5;entryY=1;entryDx=0;entryDy=0;" edge="1" parent="1" source="ln-Szk9AGflIyGVg6pl5-34" target="ln-Szk9AGflIyGVg6pl5-3">
          <mxGeometry width="50" height="50" relative="1" as="geometry">
            <mxPoint x="460" y="790" as="sourcePoint" />
            <mxPoint x="457.5" y="120" as="targetPoint" />
          </mxGeometry>
        </mxCell>
        <mxCell id="ln-Szk9AGflIyGVg6pl5-8" value="" style="endArrow=none;dashed=1;html=1;rounded=0;entryX=0.5;entryY=1;entryDx=0;entryDy=0;" edge="1" parent="1" target="ln-Szk9AGflIyGVg6pl5-4">
          <mxGeometry width="50" height="50" relative="1" as="geometry">
            <mxPoint x="660" y="950" as="sourcePoint" />
            <mxPoint x="659" y="210" as="targetPoint" />
          </mxGeometry>
        </mxCell>
        <mxCell id="ln-Szk9AGflIyGVg6pl5-10" value="" style="endArrow=none;dashed=1;html=1;rounded=0;entryX=0.5;entryY=1;entryDx=0;entryDy=0;" edge="1" parent="1" target="ln-Szk9AGflIyGVg6pl5-2">
          <mxGeometry width="50" height="50" relative="1" as="geometry">
            <mxPoint x="260" y="950" as="sourcePoint" />
            <mxPoint x="260" y="250" as="targetPoint" />
          </mxGeometry>
        </mxCell>
        <mxCell id="ln-Szk9AGflIyGVg6pl5-18" value="" style="endArrow=classic;html=1;rounded=0;entryX=0;entryY=0;entryDx=0;entryDy=0;" edge="1" parent="1" target="ln-Szk9AGflIyGVg6pl5-20">
          <mxGeometry width="50" height="50" relative="1" as="geometry">
            <mxPoint x="60" y="140" as="sourcePoint" />
            <mxPoint x="210" y="160" as="targetPoint" />
          </mxGeometry>
        </mxCell>
        <mxCell id="ln-Szk9AGflIyGVg6pl5-19" value="Input Email" style="text;html=1;align=center;verticalAlign=middle;whiteSpace=wrap;rounded=0;" vertex="1" parent="1">
          <mxGeometry x="120" y="110" width="70" height="30" as="geometry" />
        </mxCell>
        <mxCell id="ln-Szk9AGflIyGVg6pl5-21" value="" style="endArrow=classic;html=1;rounded=0;" edge="1" parent="1">
          <mxGeometry width="50" height="50" relative="1" as="geometry">
            <mxPoint x="270" y="150" as="sourcePoint" />
            <mxPoint x="280" y="170" as="targetPoint" />
            <Array as="points">
              <mxPoint x="320" y="150" />
              <mxPoint x="320" y="170" />
            </Array>
          </mxGeometry>
        </mxCell>
        <mxCell id="ln-Szk9AGflIyGVg6pl5-22" value="Verify data" style="text;html=1;align=center;verticalAlign=middle;whiteSpace=wrap;rounded=0;" vertex="1" parent="1">
          <mxGeometry x="280" y="120" width="60" height="30" as="geometry" />
        </mxCell>
        <mxCell id="ln-Szk9AGflIyGVg6pl5-26" value="" style="endArrow=block;dashed=1;endFill=0;endSize=12;html=1;rounded=0;" edge="1" parent="1">
          <mxGeometry width="160" relative="1" as="geometry">
            <mxPoint x="260" y="220" as="sourcePoint" />
            <mxPoint x="60" y="220" as="targetPoint" />
          </mxGeometry>
        </mxCell>
        <mxCell id="ln-Szk9AGflIyGVg6pl5-27" value="Bad email message" style="text;html=1;align=center;verticalAlign=middle;whiteSpace=wrap;rounded=0;" vertex="1" parent="1">
          <mxGeometry x="97.5" y="190" width="115" height="30" as="geometry" />
        </mxCell>
        <mxCell id="ln-Szk9AGflIyGVg6pl5-28" value="" style="endArrow=classic;html=1;rounded=0;entryX=0;entryY=0;entryDx=0;entryDy=0;" edge="1" parent="1">
          <mxGeometry width="50" height="50" relative="1" as="geometry">
            <mxPoint x="60" y="250" as="sourcePoint" />
            <mxPoint x="250" y="250" as="targetPoint" />
          </mxGeometry>
        </mxCell>
        <mxCell id="ln-Szk9AGflIyGVg6pl5-29" value="Reenter Email" style="text;html=1;align=center;verticalAlign=middle;whiteSpace=wrap;rounded=0;" vertex="1" parent="1">
          <mxGeometry x="120" y="220" width="80" height="30" as="geometry" />
        </mxCell>
        <mxCell id="ln-Szk9AGflIyGVg6pl5-30" value="" style="endArrow=classic;html=1;rounded=0;entryX=0;entryY=0;entryDx=0;entryDy=0;" edge="1" parent="1">
          <mxGeometry width="50" height="50" relative="1" as="geometry">
            <mxPoint x="260" y="290" as="sourcePoint" />
            <mxPoint x="450" y="290" as="targetPoint" />
          </mxGeometry>
        </mxCell>
        <mxCell id="ln-Szk9AGflIyGVg6pl5-33" value="&lt;div&gt;Request login page&lt;/div&gt;" style="text;html=1;align=center;verticalAlign=middle;whiteSpace=wrap;rounded=0;" vertex="1" parent="1">
          <mxGeometry x="305" y="260" width="110" height="30" as="geometry" />
        </mxCell>
        <mxCell id="ln-Szk9AGflIyGVg6pl5-38" value="" style="endArrow=none;dashed=1;html=1;rounded=0;entryX=0.5;entryY=1;entryDx=0;entryDy=0;" edge="1" parent="1" target="ln-Szk9AGflIyGVg6pl5-34">
          <mxGeometry width="50" height="50" relative="1" as="geometry">
            <mxPoint x="460" y="950" as="sourcePoint" />
            <mxPoint x="460" y="100" as="targetPoint" />
          </mxGeometry>
        </mxCell>
        <mxCell id="ln-Szk9AGflIyGVg6pl5-39" value="" style="endArrow=block;dashed=1;endFill=0;endSize=12;html=1;rounded=0;" edge="1" parent="1">
          <mxGeometry width="160" relative="1" as="geometry">
            <mxPoint x="470" y="319.40999999999997" as="sourcePoint" />
            <mxPoint x="270" y="319.40999999999997" as="targetPoint" />
          </mxGeometry>
        </mxCell>
        <mxCell id="ln-Szk9AGflIyGVg6pl5-34" value="" style="rounded=0;whiteSpace=wrap;html=1;" vertex="1" parent="1">
          <mxGeometry x="450" y="280" width="20" height="270" as="geometry" />
        </mxCell>
        <mxCell id="ln-Szk9AGflIyGVg6pl5-40" value="Login page URL" style="text;html=1;align=center;verticalAlign=middle;whiteSpace=wrap;rounded=0;" vertex="1" parent="1">
          <mxGeometry x="300" y="290" width="115" height="30" as="geometry" />
        </mxCell>
        <mxCell id="ln-Szk9AGflIyGVg6pl5-41" value="" style="endArrow=block;dashed=1;endFill=0;endSize=12;html=1;rounded=0;" edge="1" parent="1">
          <mxGeometry width="160" relative="1" as="geometry">
            <mxPoint x="250" y="330" as="sourcePoint" />
            <mxPoint x="60" y="330" as="targetPoint" />
          </mxGeometry>
        </mxCell>
        <mxCell id="ln-Szk9AGflIyGVg6pl5-42" value="Forward to URL" style="text;html=1;align=center;verticalAlign=middle;whiteSpace=wrap;rounded=0;" vertex="1" parent="1">
          <mxGeometry x="97.5" y="300" width="115" height="30" as="geometry" />
        </mxCell>
        <mxCell id="ln-Szk9AGflIyGVg6pl5-43" value="" style="endArrow=classic;html=1;rounded=0;entryX=0;entryY=0;entryDx=0;entryDy=0;" edge="1" parent="1">
          <mxGeometry width="50" height="50" relative="1" as="geometry">
            <mxPoint x="60" y="370" as="sourcePoint" />
            <mxPoint x="250" y="370" as="targetPoint" />
          </mxGeometry>
        </mxCell>
        <mxCell id="ln-Szk9AGflIyGVg6pl5-44" value="Input Data" style="text;html=1;align=center;verticalAlign=middle;whiteSpace=wrap;rounded=0;" vertex="1" parent="1">
          <mxGeometry x="120" y="340" width="70" height="30" as="geometry" />
        </mxCell>
        <mxCell id="ln-Szk9AGflIyGVg6pl5-46" value="" style="endArrow=classic;html=1;rounded=0;entryX=0;entryY=0;entryDx=0;entryDy=0;" edge="1" parent="1">
          <mxGeometry width="50" height="50" relative="1" as="geometry">
            <mxPoint x="260" y="390" as="sourcePoint" />
            <mxPoint x="450" y="390" as="targetPoint" />
          </mxGeometry>
        </mxCell>
        <mxCell id="ln-Szk9AGflIyGVg6pl5-20" value="" style="rounded=0;whiteSpace=wrap;html=1;" vertex="1" parent="1">
          <mxGeometry x="250" y="140" width="20" height="720" as="geometry" />
        </mxCell>
        <mxCell id="ln-Szk9AGflIyGVg6pl5-47" value="&lt;div&gt;Request Authentication&lt;/div&gt;" style="text;html=1;align=center;verticalAlign=middle;whiteSpace=wrap;rounded=0;" vertex="1" parent="1">
          <mxGeometry x="322.5" y="360" width="70" height="30" as="geometry" />
        </mxCell>
        <mxCell id="ln-Szk9AGflIyGVg6pl5-48" value="" style="endArrow=block;dashed=1;endFill=0;endSize=12;html=1;rounded=0;" edge="1" parent="1">
          <mxGeometry width="160" relative="1" as="geometry">
            <mxPoint x="450" y="550" as="sourcePoint" />
            <mxPoint x="270" y="550" as="targetPoint" />
          </mxGeometry>
        </mxCell>
        <mxCell id="ln-Szk9AGflIyGVg6pl5-49" value="Authentication Successful" style="text;html=1;align=center;verticalAlign=middle;whiteSpace=wrap;rounded=0;" vertex="1" parent="1">
          <mxGeometry x="287.5" y="510" width="145" height="30" as="geometry" />
        </mxCell>
        <mxCell id="ln-Szk9AGflIyGVg6pl5-54" value="" style="rounded=0;whiteSpace=wrap;html=1;" vertex="1" parent="1">
          <mxGeometry x="648.75" y="600" width="20" height="245" as="geometry" />
        </mxCell>
        <mxCell id="ln-Szk9AGflIyGVg6pl5-55" value="" style="endArrow=classic;html=1;rounded=0;entryX=0;entryY=0;entryDx=0;entryDy=0;" edge="1" parent="1">
          <mxGeometry width="50" height="50" relative="1" as="geometry">
            <mxPoint x="268.75" y="600" as="sourcePoint" />
            <mxPoint x="648.75" y="600" as="targetPoint" />
          </mxGeometry>
        </mxCell>
        <mxCell id="ln-Szk9AGflIyGVg6pl5-56" value="Request User Profile" style="text;html=1;align=center;verticalAlign=middle;whiteSpace=wrap;rounded=0;" vertex="1" parent="1">
          <mxGeometry x="296.25" y="570" width="120" height="30" as="geometry" />
        </mxCell>
        <mxCell id="ln-Szk9AGflIyGVg6pl5-57" value="" style="endArrow=block;dashed=1;endFill=0;endSize=12;html=1;rounded=0;" edge="1" parent="1">
          <mxGeometry width="160" relative="1" as="geometry">
            <mxPoint x="648.75" y="735.41" as="sourcePoint" />
            <mxPoint x="268.75" y="735" as="targetPoint" />
          </mxGeometry>
        </mxCell>
        <mxCell id="ln-Szk9AGflIyGVg6pl5-58" value="Return User Profile" style="text;html=1;align=center;verticalAlign=middle;whiteSpace=wrap;rounded=0;" vertex="1" parent="1">
          <mxGeometry x="288.75" y="705" width="127.5" height="30" as="geometry" />
        </mxCell>
        <mxCell id="ln-Szk9AGflIyGVg6pl5-59" value="" style="endArrow=classic;html=1;rounded=0;entryX=0;entryY=0;entryDx=0;entryDy=0;" edge="1" parent="1">
          <mxGeometry width="50" height="50" relative="1" as="geometry">
            <mxPoint x="268.75" y="795" as="sourcePoint" />
            <mxPoint x="648.75" y="795" as="targetPoint" />
          </mxGeometry>
        </mxCell>
        <mxCell id="ln-Szk9AGflIyGVg6pl5-60" value="Request Landing Page Data" style="text;html=1;align=center;verticalAlign=middle;whiteSpace=wrap;rounded=0;" vertex="1" parent="1">
          <mxGeometry x="293.75" y="755" width="132.5" height="30" as="geometry" />
        </mxCell>
        <mxCell id="ln-Szk9AGflIyGVg6pl5-61" value="" style="endArrow=block;dashed=1;endFill=0;endSize=12;html=1;rounded=0;" edge="1" parent="1">
          <mxGeometry width="160" relative="1" as="geometry">
            <mxPoint x="648.75" y="845.41" as="sourcePoint" />
            <mxPoint x="268.75" y="845" as="targetPoint" />
          </mxGeometry>
        </mxCell>
        <mxCell id="ln-Szk9AGflIyGVg6pl5-62" value="&lt;div&gt;Return Landing Page Data&lt;/div&gt;" style="text;html=1;align=center;verticalAlign=middle;whiteSpace=wrap;rounded=0;" vertex="1" parent="1">
          <mxGeometry x="296.25" y="808.75" width="132.5" height="30" as="geometry" />
        </mxCell>
        <mxCell id="ln-Szk9AGflIyGVg6pl5-63" value="" style="endArrow=block;dashed=1;endFill=0;endSize=12;html=1;rounded=0;" edge="1" parent="1">
          <mxGeometry width="160" relative="1" as="geometry">
            <mxPoint x="250" y="860" as="sourcePoint" />
            <mxPoint x="60" y="860" as="targetPoint" />
          </mxGeometry>
        </mxCell>
        <mxCell id="ln-Szk9AGflIyGVg6pl5-64" value="Display Landing Page" style="text;html=1;align=center;verticalAlign=middle;whiteSpace=wrap;rounded=0;" vertex="1" parent="1">
          <mxGeometry x="96.25" y="823.75" width="125" height="30" as="geometry" />
        </mxCell>
        <mxCell id="ln-Szk9AGflIyGVg6pl5-65" value="ALT" style="shape=umlFrame;whiteSpace=wrap;html=1;pointerEvents=0;" vertex="1" parent="1">
          <mxGeometry x="-40" y="180" width="770" height="80" as="geometry" />
        </mxCell>
        <mxCell id="ln-Szk9AGflIyGVg6pl5-68" value="IF NOT" style="shape=umlFrame;whiteSpace=wrap;html=1;pointerEvents=0;" vertex="1" parent="1">
          <mxGeometry x="-40" y="260" width="770" height="650" as="geometry" />
        </mxCell>
        <mxCell id="ln-Szk9AGflIyGVg6pl5-69" value="" style="endArrow=block;dashed=1;endFill=0;endSize=12;html=1;rounded=0;" edge="1" parent="1">
          <mxGeometry width="160" relative="1" as="geometry">
            <mxPoint x="447.5" y="440" as="sourcePoint" />
            <mxPoint x="267.5" y="440" as="targetPoint" />
          </mxGeometry>
        </mxCell>
        <mxCell id="ln-Szk9AGflIyGVg6pl5-70" value="Authentication Failed" style="text;html=1;align=center;verticalAlign=middle;whiteSpace=wrap;rounded=0;" vertex="1" parent="1">
          <mxGeometry x="291.25" y="410" width="145" height="30" as="geometry" />
        </mxCell>
        <mxCell id="ln-Szk9AGflIyGVg6pl5-72" value="" style="endArrow=classic;html=1;rounded=0;entryX=0;entryY=0;entryDx=0;entryDy=0;" edge="1" parent="1">
          <mxGeometry width="50" height="50" relative="1" as="geometry">
            <mxPoint x="60" y="460" as="sourcePoint" />
            <mxPoint x="250" y="460" as="targetPoint" />
          </mxGeometry>
        </mxCell>
        <mxCell id="ln-Szk9AGflIyGVg6pl5-73" value="Reenter Correct Data" style="text;html=1;align=center;verticalAlign=middle;whiteSpace=wrap;rounded=0;" vertex="1" parent="1">
          <mxGeometry x="97.5" y="430" width="125" height="30" as="geometry" />
        </mxCell>
        <mxCell id="ln-Szk9AGflIyGVg6pl5-74" value="ALT" style="shape=umlFrame;whiteSpace=wrap;html=1;pointerEvents=0;" vertex="1" parent="1">
          <mxGeometry x="-30" y="410" width="750" height="80" as="geometry" />
        </mxCell>
        <mxCell id="ln-Szk9AGflIyGVg6pl5-75" value="IF NOT" style="shape=umlFrame;whiteSpace=wrap;html=1;pointerEvents=0;" vertex="1" parent="1">
          <mxGeometry x="-30" y="490" width="750" height="400" as="geometry" />
        </mxCell>
        <mxCell id="ln-Szk9AGflIyGVg6pl5-85" value="" style="endArrow=block;dashed=1;endFill=0;endSize=12;html=1;rounded=0;" edge="1" parent="1">
          <mxGeometry width="160" relative="1" as="geometry">
            <mxPoint x="650" y="645.41" as="sourcePoint" />
            <mxPoint x="270" y="645" as="targetPoint" />
          </mxGeometry>
        </mxCell>
        <mxCell id="ln-Szk9AGflIyGVg6pl5-86" value="Server Error" style="text;html=1;align=center;verticalAlign=middle;whiteSpace=wrap;rounded=0;" vertex="1" parent="1">
          <mxGeometry x="291.25" y="615" width="127.5" height="30" as="geometry" />
        </mxCell>
        <mxCell id="ln-Szk9AGflIyGVg6pl5-88" value="" style="endArrow=block;dashed=1;endFill=0;endSize=12;html=1;rounded=0;" edge="1" parent="1">
          <mxGeometry width="160" relative="1" as="geometry">
            <mxPoint x="250" y="665" as="sourcePoint" />
            <mxPoint x="60" y="665" as="targetPoint" />
          </mxGeometry>
        </mxCell>
        <mxCell id="ln-Szk9AGflIyGVg6pl5-89" value="Error Message" style="text;html=1;align=center;verticalAlign=middle;whiteSpace=wrap;rounded=0;" vertex="1" parent="1">
          <mxGeometry x="77.5" y="635" width="167.5" height="30" as="geometry" />
        </mxCell>
        <mxCell id="ln-Szk9AGflIyGVg6pl5-90" value="ALT" style="shape=umlFrame;whiteSpace=wrap;html=1;pointerEvents=0;" vertex="1" parent="1">
          <mxGeometry x="-10" y="615" width="700" height="80" as="geometry" />
        </mxCell>
        <mxCell id="ln-Szk9AGflIyGVg6pl5-91" value="IF NOT" style="shape=umlFrame;whiteSpace=wrap;html=1;pointerEvents=0;" vertex="1" parent="1">
          <mxGeometry x="-10" y="695" width="700" height="180" as="geometry" />
        </mxCell>
      </root>
    </mxGraphModel>
  </diagram>
</mxfile>
